<svg xmlns="http://www.w3.org/2000/svg" viewBox="0 0 322 64" width="322" height="64">
  <path d="M 28.50 43.03 C 28.43 43.09, 28.29 43.32, 28.09 43.37 C 27.90 43.42, 27.54 43.30, 27.34 43.33 C 27.13 43.36, 26.97 43.40, 26.89 43.55 C 26.80 43.71, 26.83 44.01, 26.81 44.28 C 26.80 44.54, 26.86 44.90, 26.80 45.13 C 26.74 45.36, 26.63 45.60, 26.46 45.67 C 26.28 45.74, 25.97 45.57, 25.76 45.54 C 25.54 45.52, 25.26 45.52, 25.17 45.52" fill="none" stroke="#dbe6ff" stroke-width="5.5" stroke-linecap="round" stroke-linejoin="round"/>
  <path d="M 22.30 45.97 C 22.21 45.90, 21.95 45.58, 21.74 45.57 C 21.53 45.55, 21.31 45.77, 21.06 45.90 C 20.82 46.02, 20.49 46.30, 20.26 46.29 C 20.03 46.28, 19.82 46.08, 19.70 45.84 C 19.58 45.60, 19.59 45.14, 19.54 44.84 C 19.48 44.54, 19.53 44.17, 19.37 44.06 C 19.21 43.94, 18.82 44.15, 18.59 44.13 C 18.35 44.11, 18.05 43.97, 17.94 43.94" fill="none" stroke="#f8f5ef" stroke-width="5.5" stroke-linecap="round" stroke-linejoin="round"/>
  <path d="M 16.28 41.97 C 16.26 41.85, 16.38 41.38, 16.18 41.23 C 15.98 41.07, 15.34 41.17, 15.10 41.03 C 14.85 40.89, 14.67 40.67, 14.72 40.39 C 14.78 40.10, 15.33 39.62, 15.42 39.33 C 15.51 39.04, 15.50 38.82, 15.26 38.65 C 15.02 38.49, 14.23 38.51, 14.00 38.34 C 13.78 38.17, 13.91 37.88, 13.92 37.63 C 13.93 37.38, 14.06 36.98, 14.08 36.85" fill="none" stroke="#dbe6ff" stroke-width="5.5" stroke-linecap="round" stroke-linejoin="round"/>
  <path d="M 13.60 33.95 C 13.67 33.82, 14.00 33.44, 14.03 33.21 C 14.05 32.97, 13.96 32.77, 13.76 32.54 C 13.57 32.32, 13.03 32.10, 12.86 31.86 C 12.69 31.63, 12.64 31.36, 12.76 31.13 C 12.88 30.89, 13.32 30.67, 13.59 30.46 C 13.87 30.24, 14.33 30.05, 14.41 29.83 C 14.49 29.61, 14.16 29.36, 14.06 29.12 C 13.97 28.87, 13.86 28.49, 13.82 28.37" fill="none" stroke="#2563eb" stroke-width="5.5" stroke-linecap="round" stroke-linejoin="round"/>
  <path d="M 14.73 25.06 C 14.73 24.93, 14.71 24.54, 14.73 24.29 C 14.74 24.04, 14.65 23.74, 14.83 23.57 C 15.01 23.40, 15.54 23.39, 15.82 23.27 C 16.10 23.15, 16.39 23.05, 16.49 22.84 C 16.58 22.63, 16.42 22.30, 16.38 21.99 C 16.35 21.69, 16.18 21.23, 16.28 21.02 C 16.39 20.81, 16.79 20.83, 17.02 20.71 C 17.25 20.60, 17.56 20.40, 17.66 20.34" fill="none" stroke="#f8f5ef" stroke-width="5.5" stroke-linecap="round" stroke-linejoin="round"/>
  <path d="M 19.65 18.83 C 19.78 18.82, 20.16 18.77, 20.40 18.76 C 20.65 18.76, 20.93 18.94, 21.12 18.79 C 21.31 18.63, 21.35 18.05, 21.55 17.82 C 21.75 17.59, 22.06 17.36, 22.30 17.41 C 22.54 17.47, 22.78 17.93, 23.00 18.14 C 23.23 18.36, 23.42 18.71, 23.65 18.73 C 23.88 18.74, 24.15 18.30, 24.39 18.26 C 24.62 18.21, 24.95 18.41, 25.06 18.44" fill="none" stroke="#2563eb" stroke-width="5.5" stroke-linecap="round" stroke-linejoin="round"/>
  <path d="M 27.50 19.96 C 27.53 19.96, 27.63 19.99, 27.69 20.00 C 27.76 20.02, 27.83 20.03, 27.90 20.04 C 27.97 20.05, 28.04 20.06, 28.10 20.08 C 28.17 20.10, 28.26 20.12, 28.30 20.17 C 28.33 20.22, 28.30 20.32, 28.31 20.40 C 28.31 20.47, 28.32 20.55, 28.33 20.61 C 28.34 20.68, 28.36 20.75, 28.39 20.80 C 28.41 20.86, 28.47 20.93, 28.48 20.95" fill="none" stroke="#dbe6ff" stroke-width="5.5" stroke-linecap="round" stroke-linejoin="round"/>
  <path d="M 35.50 18.00 C 35.56 18.12, 35.87 18.47, 35.84 18.70 C 35.80 18.94, 35.47 19.17, 35.28 19.40 C 35.09 19.63, 34.75 19.86, 34.70 20.09 C 34.65 20.32, 34.80 20.56, 34.98 20.79 C 35.16 21.03, 35.58 21.27, 35.79 21.50 C 36.00 21.74, 36.26 21.98, 36.24 22.21 C 36.22 22.44, 35.80 22.67, 35.67 22.90 C 35.53 23.13, 35.48 23.48, 35.44 23.60" fill="none" stroke="#dbe6ff" stroke-width="5.5" stroke-linecap="round" stroke-linejoin="round"/>
  <path d="M 35.41 26.35 C 35.45 26.47, 35.57 26.82, 35.66 27.05 C 35.75 27.28, 35.98 27.51, 35.93 27.74 C 35.88 27.98, 35.52 28.22, 35.34 28.45 C 35.16 28.69, 34.90 28.93, 34.86 29.16 C 34.83 29.40, 34.99 29.63, 35.15 29.86 C 35.31 30.09, 35.72 30.31, 35.84 30.54 C 35.95 30.78, 35.87 31.01, 35.81 31.25 C 35.76 31.48, 35.55 31.83, 35.50 31.95" fill="none" stroke="#f8f5ef" stroke-width="5.5" stroke-linecap="round" stroke-linejoin="round"/>
  <path d="M 35.54 34.15 C 35.58 34.24, 35.67 34.50, 35.78 34.67 C 35.88 34.84, 36.16 35.01, 36.15 35.19 C 36.15 35.36, 35.91 35.54, 35.72 35.72 C 35.54 35.90, 35.18 36.08, 35.05 36.26 C 34.92 36.44, 34.86 36.61, 34.93 36.79 C 35.00 36.96, 35.35 37.12, 35.50 37.30 C 35.65 37.47, 35.82 37.65, 35.83 37.83 C 35.85 38.00, 35.63 38.26, 35.59 38.35" fill="none" stroke="#dbe6ff" stroke-width="5.5" stroke-linecap="round" stroke-linejoin="round"/>
  <path d="M 35.56 41.01 C 35.53 41.10, 35.36 41.36, 35.39 41.53 C 35.41 41.71, 35.57 41.89, 35.69 42.06 C 35.81 42.24, 36.05 42.42, 36.10 42.59 C 36.15 42.77, 36.10 42.94, 36.00 43.12 C 35.90 43.29, 35.64 43.46, 35.49 43.63 C 35.34 43.81, 35.11 43.98, 35.08 44.16 C 35.04 44.33, 35.21 44.51, 35.28 44.68 C 35.35 44.86, 35.47 45.12, 35.51 45.21" fill="none" stroke="#2563eb" stroke-width="5.5" stroke-linecap="round" stroke-linejoin="round"/>
  <path d="M 36.56 18.03 C 36.66 17.99, 36.98 17.78, 37.18 17.79 C 37.39 17.80, 37.59 17.95, 37.78 18.10 C 37.97 18.25, 38.13 18.61, 38.33 18.70 C 38.52 18.80, 38.72 18.77, 38.94 18.67 C 39.16 18.58, 39.40 18.28, 39.63 18.14 C 39.86 18.00, 40.11 17.81, 40.31 17.85 C 40.51 17.89, 40.65 18.26, 40.84 18.40 C 41.02 18.54, 41.31 18.62, 41.41 18.67" fill="none" stroke="#2563eb" stroke-width="5.5" stroke-linecap="round" stroke-linejoin="round"/>
  <path d="M 43.27 19.18 C 43.32 19.23, 43.45 19.39, 43.55 19.46 C 43.65 19.53, 43.75 19.59, 43.87 19.61 C 43.99 19.62, 44.12 19.58, 44.26 19.54 C 44.40 19.49, 44.58 19.36, 44.72 19.33 C 44.87 19.29, 45.01 19.26, 45.12 19.31 C 45.24 19.35, 45.32 19.48, 45.40 19.59 C 45.48 19.69, 45.53 19.85, 45.61 19.96 C 45.69 20.07, 45.82 20.20, 45.86 20.24" fill="none" stroke="#dbe6ff" stroke-width="5.5" stroke-linecap="round" stroke-linejoin="round"/>
  <path d="M 47.89 21.61 C 47.98 21.67, 48.35 21.73, 48.43 21.93 C 48.51 22.13, 48.33 22.58, 48.35 22.81 C 48.37 23.05, 48.38 23.22, 48.56 23.33 C 48.74 23.45, 49.16 23.40, 49.43 23.51 C 49.71 23.61, 50.11 23.76, 50.21 23.96 C 50.30 24.16, 50.14 24.48, 50.02 24.70 C 49.89 24.92, 49.52 25.08, 49.44 25.28 C 49.37 25.49, 49.54 25.82, 49.56 25.92" fill="none" stroke="#f8f5ef" stroke-width="5.5" stroke-linecap="round" stroke-linejoin="round"/>
  <path d="M 48.52 27.76 C 48.50 27.83, 48.48 28.12, 48.39 28.23 C 48.29 28.35, 48.15 28.43, 47.96 28.43 C 47.77 28.44, 47.44 28.30, 47.24 28.27 C 47.04 28.25, 46.88 28.21, 46.77 28.28 C 46.66 28.35, 46.63 28.53, 46.59 28.72 C 46.55 28.92, 46.58 29.27, 46.52 29.45 C 46.46 29.63, 46.35 29.75, 46.22 29.82 C 46.09 29.88, 45.81 29.82, 45.73 29.82" fill="none" stroke="#dbe6ff" stroke-width="5.5" stroke-linecap="round" stroke-linejoin="round"/>
  <path d="M 43.49 30.75 C 43.42 30.82, 43.24 31.11, 43.08 31.18 C 42.92 31.24, 42.72 31.23, 42.52 31.16 C 42.31 31.09, 42.06 30.83, 41.86 30.73 C 41.66 30.64, 41.48 30.56, 41.32 30.59 C 41.15 30.62, 40.99 30.76, 40.85 30.93 C 40.71 31.09, 40.60 31.43, 40.45 31.59 C 40.31 31.75, 40.14 31.86, 39.97 31.88 C 39.79 31.90, 39.50 31.73, 39.41 31.70" fill="none" stroke="#2563eb" stroke-width="5.5" stroke-linecap="round" stroke-linejoin="round"/>
  <path d="M 36.59 31.73 C 36.67 31.69, 36.89 31.56, 37.04 31.50 C 37.19 31.43, 37.35 31.31, 37.49 31.34 C 37.64 31.36, 37.78 31.51, 37.91 31.66 C 38.04 31.82, 38.16 32.10, 38.29 32.26 C 38.42 32.42, 38.54 32.60, 38.68 32.63 C 38.83 32.65, 38.99 32.50, 39.15 32.41 C 39.31 32.32, 39.47 32.13, 39.63 32.08 C 39.78 32.03, 39.99 32.09, 40.07 32.10" fill="none" stroke="#f8f5ef" stroke-width="5.5" stroke-linecap="round" stroke-linejoin="round"/>
  <path d="M 42.16 32.54 C 42.24 32.61, 42.47 32.92, 42.68 32.95 C 42.89 32.97, 43.16 32.76, 43.40 32.68 C 43.64 32.59, 43.92 32.39, 44.12 32.45 C 44.32 32.52, 44.45 32.81, 44.58 33.07 C 44.70 33.32, 44.73 33.77, 44.86 33.97 C 44.99 34.17, 45.14 34.28, 45.36 34.29 C 45.58 34.29, 45.96 33.99, 46.18 34.01 C 46.40 34.02, 46.61 34.29, 46.69 34.35" fill="none" stroke="#dbe6ff" stroke-width="5.5" stroke-linecap="round" stroke-linejoin="round"/>
  <path d="M 48.42 35.63 C 48.49 35.66, 48.76 35.71, 48.88 35.80 C 48.99 35.89, 49.10 36.01, 49.12 36.18 C 49.14 36.36, 49.02 36.65, 48.99 36.84 C 48.96 37.02, 48.90 37.19, 48.96 37.30 C 49.03 37.41, 49.20 37.44, 49.37 37.51 C 49.54 37.58, 49.86 37.62, 50.00 37.73 C 50.13 37.84, 50.18 38.01, 50.19 38.16 C 50.20 38.31, 50.09 38.55, 50.07 38.63" fill="none" stroke="#2563eb" stroke-width="5.5" stroke-linecap="round" stroke-linejoin="round"/>
  <path d="M 49.72 40.62 C 49.67 40.69, 49.50 40.89, 49.46 41.08 C 49.43 41.27, 49.54 41.56, 49.50 41.75 C 49.46 41.95, 49.38 42.16, 49.22 42.27 C 49.07 42.37, 48.79 42.36, 48.55 42.38 C 48.32 42.39, 48.02 42.31, 47.82 42.34 C 47.63 42.38, 47.50 42.45, 47.40 42.60 C 47.30 42.74, 47.31 43.05, 47.21 43.22 C 47.12 43.38, 46.89 43.51, 46.82 43.57" fill="none" stroke="#f8f5ef" stroke-width="5.5" stroke-linecap="round" stroke-linejoin="round"/>
  <path d="M 45.04 44.49 C 44.98 44.49, 44.77 44.45, 44.67 44.51 C 44.57 44.57, 44.50 44.71, 44.44 44.87 C 44.37 45.02, 44.34 45.30, 44.27 45.46 C 44.20 45.61, 44.12 45.77, 44.00 45.78 C 43.88 45.80, 43.70 45.63, 43.55 45.53 C 43.39 45.43, 43.20 45.24, 43.06 45.17 C 42.91 45.10, 42.79 45.09, 42.68 45.13 C 42.57 45.17, 42.44 45.35, 42.39 45.40" fill="none" stroke="#2563eb" stroke-width="5.5" stroke-linecap="round" stroke-linejoin="round"/>
  <path d="M 40.16 45.89 C 40.09 45.90, 39.86 45.88, 39.73 45.95 C 39.59 46.03, 39.46 46.20, 39.33 46.32 C 39.20 46.43, 39.08 46.62, 38.93 46.65 C 38.79 46.68, 38.62 46.59, 38.47 46.50 C 38.31 46.41, 38.14 46.22, 37.99 46.11 C 37.83 46.01, 37.68 45.89, 37.53 45.87 C 37.38 45.86, 37.24 45.97, 37.10 46.03 C 36.96 46.10, 36.75 46.23, 36.68 46.27" fill="none" stroke="#dbe6ff" stroke-width="5.5" stroke-linecap="round" stroke-linejoin="round"/>
  <text x="61" y="47" font-family="Fraunces, Georgia, 'Times New Roman', serif" font-size="45" font-weight="600" letter-spacing="-0.5" fill="#f8f5ef">CradleBase</text>
</svg>
